 <svg  version="1.0" xmlns="http://www.w3.org/2000/svg"  width="816.000000pt" height="762.000000pt" viewBox="0 0 816.000000 762.000000"  preserveAspectRatio="xMidYMid meet">  <g transform="translate(0.000000,762.000000) scale(0.100000,-0.100000)" fill="#f52929" stroke="none"> <path d="M3660 7384 c-8 -2 -69 -8 -135 -13 -128 -10 -337 -37 -395 -51 -19 -5 -62 -15 -95 -24 -33 -8 -73 -17 -90 -20 -49 -9 -315 -89 -350 -105 -11 -5 -51 -22 -90 -36 -319 -123 -644 -314 -948 -558 -214 -173 -485 -458 -633 -668 -79 -112 -124 -179 -124 -186 0 -3 -11 -21 -25 -39 -14 -18 -29 -43 -35 -56 -5 -13 -16 -32 -22 -43 -64 -102 -71 -114 -187 -367 -17 -37 -31 -73 -31 -80 0 -7 -7 -22 -15 -32 -8 -11 -15 -28 -15 -37 0 -10 -6 -30 -14 -46 -16 -30 -62 -167 -76 -223 -5 -19 -16 -63 -24 -97 -7 -34 -17 -66 -20 -72 -8 -13 -20 -74 -41 -215 -8 -54 -18 -103 -21 -108 -23 -36 -40 -580 -25 -763 7 -77 14 -158 15 -180 4 -41 19 -129 38 -220 6 -27 14 -70 19 -95 17 -91 32 -156 45 -195 8 -23 14 -50 14 -61 0 -11 7 -29 15 -40 8 -10 15 -31 15 -45 0 -14 7 -34 15 -45 8 -10 15 -30 15 -44 0 -14 6 -34 14 -45 7 -11 16 -33 20 -50 8 -30 45 -117 72 -167 8 -14 14 -31 14 -37 0 -11 72 -159 113 -231 14 -25 37 -66 51 -91 24 -44 96 -157 168 -262 18 -27 53 -74 78 -105 25 -32 53 -67 61 -79 20 -28 209 -242 232 -262 10 -9 49 -45 86 -81 164 -158 404 -348 556 -439 39 -23 77 -46 85 -51 205 -126 507 -262 750 -338 357 -111 715 -166 1085 -166 280 0 459 19 760 80 39 8 88 18 110 22 22 5 50 14 62 20 12 7 30 12 41 12 20 0 186 53 282 90 30 12 67 25 81 29 14 5 50 20 80 34 30 14 103 49 162 77 60 28 125 61 145 74 20 12 64 38 96 56 33 18 88 52 123 76 36 24 66 44 69 44 9 0 249 184 334 256 92 78 289 276 386 389 55 63 137 169 216 280 86 119 213 340 290 505 33 69 68 143 79 166 10 23 19 45 19 50 0 5 11 36 24 69 55 135 153 492 162 590 2 17 7 50 13 75 32 149 44 313 45 590 0 281 -9 399 -46 595 -6 33 -13 71 -14 85 -23 168 -139 548 -228 745 -138 304 -261 514 -440 750 -235 310 -585 636 -889 827 -38 24 -80 51 -95 60 -104 65 -317 178 -336 178 -8 0 -19 7 -26 15 -7 8 -20 15 -30 15 -9 0 -42 14 -73 30 -31 17 -63 30 -71 30 -8 0 -27 6 -43 14 -38 19 -89 38 -208 75 -55 17 -114 36 -131 41 -29 10 -55 16 -194 45 -233 50 -570 86 -790 84 -63 -1 -122 -3 -130 -5z m34 -1760 c14 -14 16 -92 14 -752 -3 -728 -3 -737 -23 -740 -15 -2 -156 133 -538 516 -427 427 -518 523 -515 542 4 28 149 142 258 202 94 51 227 118 236 118 4 0 37 12 73 26 93 38 282 84 376 93 44 5 85 9 92 10 6 0 19 -6 27 -15z m561 -30 c77 -20 167 -46 201 -60 33 -13 64 -24 68 -24 16 0 204 -98 286 -150 101 -63 220 -156 220 -173 0 -18 -1043 -1057 -1062 -1057 -27 0 -29 75 -26 808 3 594 5 684 18 692 24 16 145 1 295 -36z m-1279 -1114 c291 -292 519 -528 519 -537 0 -17 -42 -18 -747 -21 -704 -2 -748 -1 -756 15 -22 41 41 347 103 509 25 65 111 245 138 289 98 159 181 265 208 265 9 0 249 -234 535 -520z m2306 453 c82 -104 91 -120 203 -328 36 -67 110 -261 120 -315 3 -19 10 -46 15 -60 17 -51 41 -217 38 -260 l-3 -45 -730 -3 c-401 -1 -740 0 -752 3 -16 4 -21 10 -16 23 9 28 1036 1052 1055 1052 9 0 41 -30 70 -67z m-1787 -1263 c3 -5 2 -17 -3 -25 -19 -35 -1038 -1045 -1053 -1045 -25 0 -161 178 -219 285 -11 22 -25 47 -30 55 -15 27 -68 144 -88 195 -48 123 -88 281 -111 439 -17 118 -102 106 754 106 481 0 746 -4 750 -10z m2153 -2 c14 -14 15 -85 2 -148 -6 -25 -14 -65 -19 -90 -47 -237 -132 -443 -270 -655 -53 -82 -132 -175 -149 -175 -16 0 -1034 1009 -1054 1044 -5 9 -6 21 -3 26 10 16 1477 14 1493 -2z m-1144 -716 c280 -281 514 -518 519 -528 8 -15 2 -25 -34 -56 -40 -35 -183 -136 -234 -165 -47 -27 -226 -113 -234 -113 -4 0 -39 -13 -77 -28 -38 -16 -105 -37 -149 -46 -44 -10 -90 -22 -102 -26 -36 -15 -183 -32 -213 -25 -17 4 -30 14 -34 28 -10 39 -7 1434 4 1462 8 21 13 24 27 16 10 -5 247 -239 527 -519z m-797 -222 c2 -453 -1 -741 -7 -750 -17 -27 -170 -12 -350 37 -239 63 -456 171 -663 331 -46 35 -58 49 -55 68 4 36 1026 1056 1053 1052 20 -3 20 -11 22 -738z"/> <path d="M4982 3461 l-334 -6 267 -267 c147 -148 270 -268 275 -268 13 0 105 172 141 263 17 45 35 91 40 102 15 37 39 133 39 154 0 14 -6 21 -19 21 -10 0 -31 1 -47 3 -16 2 -179 1 -362 -2z"/> <path d="M4168 2963 c-9 -16 -9 -741 -1 -746 9 -6 118 20 194 46 137 47 339 153 339 177 0 9 -470 482 -515 520 -7 6 -15 7 -17 3z"/> </g> </svg> 